<?xml version="1.0" encoding="utf-8"?>
<!DOCTYPE svg PUBLIC "-//W3C//DTD SVG 1.1//EN" "http://www.w3.org/Graphics/SVG/1.1/DTD/svg11.dtd">
<svg xmlns="http://www.w3.org/2000/svg" xmlns:xlink="http://www.w3.org/1999/xlink" version="1.1" baseProfile="full" width="32" height="32" viewBox="0 0 32.00 32.00" enable-background="new 0 0 32.00 32.00" xml:space="preserve">
	<path fill="#FFFFFF" fill-opacity="1" stroke-width="0.2" stroke-linejoin="miter" d="M 15.9717,1.99994C 12.0027,1.99994 9.42303,4.30615 9.04265,8.1766L 10.8716,8.1766C 11.0103,5.27964 12.9843,3.41688 15.9297,3.41688C 19.1588,3.41688 21.2463,5.60129 21.2463,8.98387C 21.2463,11.3364 20.2856,12.566 18.6247,13.8928L 18.5618,13.941C 17.6325,14.66 15.9045,16.0012 15.4651,17.0398C 15.1371,17.7335 15.1371,18.524 15.1371,19.22L 15.1371,23.2141L 16.8484,23.2141L 16.8484,20.6388C 16.8484,17.7419 16.8484,17.4392 19.3418,15.4505C 21.7993,13.51 22.9575,12.2528 22.9575,9.11218C 22.9575,4.7247 20.2815,1.99994 15.9717,1.99994 Z "/>
	<line fill="none" stroke-width="1.7" stroke-linejoin="miter" stroke="#FFFFFF" stroke-opacity="1" x1="16.0001" y1="26.3285" x2="16.0004" y2="30.0001"/>
</svg>
