<?xml version="1.0" encoding="utf-8"?>
<!DOCTYPE svg PUBLIC "-//W3C//DTD SVG 1.1//EN" "http://www.w3.org/Graphics/SVG/1.1/DTD/svg11.dtd">
<svg xmlns="http://www.w3.org/2000/svg" xmlns:xlink="http://www.w3.org/1999/xlink" version="1.1" baseProfile="full" width="32" height="32" viewBox="0 0 32.00 32.00" enable-background="new 0 0 32.00 32.00" xml:space="preserve">
	<path fill="#FFFFFF" fill-opacity="1" stroke-width="0.2" stroke-linejoin="miter" d="M 14.4877,4.99992C 14.195,4.99992 13.9577,4.7628 13.9577,4.47C 13.9576,4.1773 14.1949,3.94 14.4877,3.94L 17.6576,3.94C 17.9504,3.94 18.1877,4.1772 18.1877,4.47C 18.1878,4.7627 17.9505,4.99992 17.6576,4.99992L 14.4877,4.99992 Z "/>
	<path fill="#FFFFFF" fill-opacity="1" stroke-width="0.2" stroke-linejoin="miter" d="M 16,24.84C 16.8726,24.84 17.58,25.5474 17.58,26.42C 17.58,27.2926 16.8726,28 16,28C 15.1274,28 14.42,27.2926 14.42,26.42C 14.42,25.5474 15.1274,24.84 16,24.84 Z "/>
	<path fill="#FFFFFF" fill-opacity="1" stroke-width="0.2" stroke-linejoin="miter" d="M 21.5,7.00001L 21.5,23L 10.5,23L 10.5,7.00001L 21.5,7.00001M 22.5,6.00001L 9.5,6.00001L 9.5,24L 22.5,24L 22.5,6.00001 Z "/>
	<path fill="#FFFFFF" fill-opacity="1" stroke-width="0.2" stroke-linejoin="miter" d="M 22.86,3C 23.7657,3 24.5,3.7343 24.5,4.64L 24.5,27.36C 24.5,28.2657 23.7657,29 22.86,29L 9.14,29C 8.23425,29 7.5,28.2657 7.5,27.36L 7.5,4.64C 7.5,3.7343 8.23425,3 9.14,3L 22.86,3M 22.86,2L 9.14,2C 7.68425,2.0055 6.50548,3.1842 6.5,4.64L 6.5,27.36C 6.50548,28.8158 7.68425,29.9945 9.14,30L 22.86,30C 24.3158,29.9945 25.4945,28.8158 25.5,27.36L 25.5,4.64C 25.4945,3.1842 24.3158,2.0055 22.86,2 Z "/>
</svg>
