<?xml version="1.0" encoding="utf-8"?>
<!DOCTYPE svg PUBLIC "-//W3C//DTD SVG 1.1//EN" "http://www.w3.org/Graphics/SVG/1.1/DTD/svg11.dtd">
<svg xmlns="http://www.w3.org/2000/svg" xmlns:xlink="http://www.w3.org/1999/xlink" version="1.1" baseProfile="full" width="32" height="32" viewBox="0 0 32.00 32.00" enable-background="new 0 0 32.00 32.00" xml:space="preserve">
	<path fill="#FFFFFF" fill-opacity="1" stroke-width="0.2" stroke-linejoin="miter" d="M 24.8301,13.7398L 30,5.99999L 30,2.39999L 23.97,11.42L 18.2598,9.79999L 15.71,15.13L 13.19,13.21L 7.76001,13.15L 2.00001,10.28L 2.00001,11.4L 7.41001,14.09L 12.85,14.21L 15.27,16.05L 12.66,21.49L 7.01001,19.88L 2.00001,26.18L 2.00001,29.4L 7.74,22.17L 13.74,23.88L 16.9,17.29L 18.62,18.6L 24.64,18.81L 30,21.12L 30,20.03L 24.95,17.86L 18.98,17.61L 17.3398,16.36L 19.3398,12.19L 24.8301,13.7398 Z "/>
</svg>
