<?xml version="1.0" encoding="utf-8"?>
<!DOCTYPE svg PUBLIC "-//W3C//DTD SVG 1.1//EN" "http://www.w3.org/Graphics/SVG/1.1/DTD/svg11.dtd">
<svg xmlns="http://www.w3.org/2000/svg" xmlns:xlink="http://www.w3.org/1999/xlink" version="1.1" baseProfile="full" width="32" height="32" viewBox="0 0 32.00 32.00" enable-background="new 0 0 32.00 32.00" xml:space="preserve">
	<path fill="none" stroke-width="1.33" stroke-linejoin="miter" stroke="#FFFFFF" stroke-opacity="1" d="M 12.9623,8.27215C 15.9275,8.27215 18.3397,10.6843 18.3397,13.6496C 18.3397,16.6149 15.9275,19.0271 12.9623,19.0271C 9.99698,19.0271 7.58483,16.6149 7.58483,13.6496C 7.58483,10.6843 9.99698,8.27215 12.9623,8.27215 Z "/>
	<path fill="none" stroke-width="1.33" stroke-linejoin="miter" stroke="#FFFFFF" stroke-opacity="1" d="M 22.2515,23.0074C 21.9861,21.4157 20.6434,20.2777 19.0301,20.2777L 16.2072,20.2777C 15.229,20.7652 14.13,21.0459 12.9623,21.0459C 11.7956,21.0459 10.6955,20.7652 9.71842,20.2777L 6.89449,20.2777C 5.28127,20.2777 3.93945,21.4157 3.67316,23.0074L 2.59153,29.4962L 23.3331,29.4962L 22.2515,23.0074 Z "/>
	<path fill="none" stroke-linejoin="miter" stroke="#FFFFFF" stroke-opacity="1" d="M 15,6.30335C 16.3181,3.74536 18.9852,1.99617 22.0605,1.99617C 26.4453,1.99617 30,5.55049 30,9.93535C 30,14.3192 26.4453,17.8737 22.0605,17.8737C 21.1347,17.8737 20.2458,17.7151 19.4197,17.4237"/>
	<path fill="#FFFFFF" fill-opacity="1" stroke-width="0.2" stroke-linejoin="miter" d="M 19.8737,5.1643C 20.5319,4.46256 21.4367,4.11226 22.587,4.11226C 23.6513,4.11226 24.5026,4.41173 25.1429,5.01192C 25.7833,5.61214 26.1036,6.3793 26.1036,7.31311C 26.1036,7.8782 25.9875,8.33718 25.7555,8.6892C 25.5234,9.04121 25.047,9.55888 24.3286,10.2416C 23.8053,10.7376 23.465,11.1576 23.3066,11.5019C 23.1492,11.8461 23.07,12.3542 23.07,13.0264L 21.6454,13.0264C 21.6454,12.2633 21.7369,11.6486 21.9176,11.1816C 22.0995,10.7153 22.5033,10.1804 23.1281,9.57732L 23.7819,8.94524C 23.9771,8.76403 24.1366,8.57439 24.2583,8.37688C 24.4802,8.03043 24.5907,7.67013 24.5907,7.29683C 24.5907,6.77416 24.4312,6.32062 24.112,5.93632C 23.7942,5.55246 23.2675,5.36009 22.5312,5.36009C 21.622,5.36009 20.9927,5.69083 20.6446,6.35246C 20.4482,6.7206 20.3367,7.2517 20.3098,7.94504L 18.8852,7.94504C 18.8852,6.79258 19.2142,5.86607 19.8737,5.1643 Z "/>
	<rect x="21.5101" y="13.7869" fill="#FFFFFF" fill-opacity="1" stroke-width="0.2" stroke-linejoin="miter" width="1.8" height="1.8"/>
</svg>
