<?xml version="1.0" encoding="utf-8"?>
<!DOCTYPE svg PUBLIC "-//W3C//DTD SVG 1.1//EN" "http://www.w3.org/Graphics/SVG/1.1/DTD/svg11.dtd">
<svg xmlns="http://www.w3.org/2000/svg" xmlns:xlink="http://www.w3.org/1999/xlink" version="1.1" baseProfile="full" width="32" height="32" viewBox="0 0 32.00 32.00" enable-background="new 0 0 32.00 32.00" xml:space="preserve">
	<path fill="#FFFFFF" fill-opacity="1" stroke-width="0.2" stroke-linejoin="miter" d="M 18.7533,15.6245L 18.7533,26.7499C 20.5263,26.1354 22.0939,25.4247 23.2398,24.3827C 24.4939,23.2338 25.2615,21.6521 25.2615,19.2849C 25.2615,18.1467 25.0398,16.923 24.6885,15.8115C 24.402,14.9031 24.029,14.0748 23.6128,13.4336C 22.2831,14.6893 20.5966,15.4855 18.7533,15.6245 Z M 17.6723,26.7499L 17.6723,17.5375C 18.3209,16.6451 18.802,15.6245 19.0615,14.5183C 20.3317,14.342 21.6236,13.7649 22.5858,12.9206C 22.7696,12.7603 22.9425,12.5946 23.1155,12.429C 23.0777,11.745 22.8831,11.077 22.5425,10.4786C 22.4615,10.5641 22.3642,10.6335 22.2561,10.6923C 22.0452,10.8152 21.7804,10.8793 21.4993,10.8793C 21.2723,10.8793 21.0236,10.8366 20.7696,10.7564C 20.3047,10.6068 19.8885,10.3343 19.5804,10.0137C 19.2452,9.66098 19.0344,9.23349 19.0344,8.82203C 19.0344,8.73119 19.0452,8.63501 19.0723,8.53882C 19.0885,8.46935 19.1101,8.39989 19.1425,8.34111C 18.8074,8.29301 18.4777,8.27699 18.1371,8.27699C 17.9263,7.91362 17.6885,7.57162 17.429,7.24566C 17.6777,7.21895 17.9425,7.20826 18.2128,7.20826C 20.1912,7.20826 21.6831,7.8869 22.6831,8.90753C 23.629,9.86938 24.1317,11.1198 24.1966,12.3969C 24.3047,12.5412 24.4182,12.6962 24.5263,12.8672L 25.8831,11.5259L 26.3101,9.00372C 26.3588,8.70982 26.6344,8.5121 26.9263,8.56554C 27.2236,8.61363 27.4182,8.88616 27.3696,9.17471L 26.9209,11.8358C 26.9101,11.9534 26.8615,12.071 26.7696,12.1618L 25.0669,13.8397C 25.3155,14.3527 25.5317,14.9084 25.7209,15.4962C 25.8398,15.8703 25.9425,16.255 26.029,16.6451L 28.3101,17.094C 28.4615,17.126 28.5858,17.2115 28.6615,17.3344L 29.9966,19.0925C 30.175,19.3276 30.1263,19.6643 29.8885,19.8406C 29.6506,20.0169 29.3101,19.9688 29.1317,19.7337L 27.8939,18.1039L 26.2344,17.7726C 26.3047,18.2803 26.3425,18.7932 26.3425,19.2849C 26.3425,20.2414 26.229,21.0857 26.0182,21.8445L 27.6182,23.0254C 27.7155,23.1002 27.7804,23.1964 27.8074,23.2979L 28.7155,25.9804C 28.8074,26.2583 28.6506,26.5575 28.3696,26.6537C 28.0885,26.7446 27.7858,26.5896 27.6885,26.3117L 26.8344,23.7789L 25.6398,22.8918C 25.2344,23.7842 24.6669,24.5323 23.9696,25.1682C 22.5317,26.4774 20.575,27.2896 18.3804,28.0003C 18.2669,28.0377 18.1533,28.0324 18.0452,28.0003C 15.8506,27.2896 13.8939,26.4774 12.456,25.1682C 11.7588,24.5323 11.1912,23.7842 10.7858,22.8918L 9.59119,23.7789L 8.73713,26.3117C 8.63983,26.5896 8.33713,26.7446 8.05605,26.6537C 7.77497,26.5575 7.61821,26.2583 7.7101,25.9804L 8.61821,23.2979C 8.64524,23.1964 8.7101,23.1002 8.8074,23.0254L 9.96416,22.1704L 10.6452,22.1704L 11.6561,22.1704C 12.0074,23.0628 12.5317,23.7789 13.1858,24.3827C 14.3317,25.4247 15.8993,26.1354 17.6723,26.7499 Z M 21.6128,9.37777C 21.5912,9.3564 21.5696,9.34036 21.5479,9.32434C 21.2669,9.0999 20.9588,8.90753 20.6074,8.75257C 20.5263,8.73654 20.4506,8.72585 20.375,8.72585C 20.3155,8.72585 20.1155,8.73119 20.1155,8.82203C 20.1155,8.95563 20.2128,9.12128 20.3642,9.28159C 20.5533,9.4793 20.8128,9.64495 21.1047,9.74114C 21.2506,9.78923 21.3804,9.81061 21.4993,9.81061C 21.602,9.81061 21.6831,9.79457 21.7317,9.76785C 21.7588,9.75183 21.7588,9.74114 21.7588,9.71442C 21.7588,9.66633 21.7479,9.61823 21.7263,9.57014C 21.6993,9.50602 21.6615,9.44189 21.6128,9.37777 Z "/>
	<path fill="#FFFFFF" fill-opacity="1" stroke-width="0.2" stroke-linejoin="miter" d="M 1.99659,12.0175L 3.09929,12.0175C 3.35875,8.30905 6.35335,5.34868 10.1047,5.09218L 10.1047,4.00208L 11.1858,4.00208L 11.1858,5.09218C 14.9371,5.34868 17.9317,8.30905 18.1912,12.0175L 19.2939,12.0175L 19.2939,13.0863L 18.1912,13.0863C 17.9317,16.7947 14.9371,19.7551 11.1858,20.0116L 11.1858,21.1017L 10.1047,21.1017L 10.1047,20.0116C 6.35335,19.7551 3.36416,16.7947 3.09929,13.0863L 1.99659,13.0863L 1.99659,12.0175 Z M 4.18037,12.0175L 7.44524,12.0175C 7.67227,10.6763 8.74794,9.61289 10.1047,9.38846L 10.1047,6.16091C 6.95335,6.4174 4.43983,8.90219 4.18037,12.0175 Z M 11.1858,6.16091L 11.1858,9.38846C 12.5425,9.61289 13.6182,10.6763 13.8452,12.0175L 17.1101,12.0175C 16.8506,8.90219 14.3371,6.4174 11.1858,6.16091 Z M 17.1101,13.0863L 13.8452,13.0863C 13.6182,14.4275 12.5425,15.4909 11.1858,15.7153L 11.1858,18.9429C 14.3371,18.6864 16.8506,16.2016 17.1101,13.0863 Z M 10.1047,18.9429L 10.1047,15.7153C 8.74794,15.4909 7.67227,14.4275 7.44524,13.0863L 4.18037,13.0863C 4.43983,16.2016 6.95335,18.6864 10.1047,18.9429 Z M 10.6452,10.4144C 9.45064,10.4144 8.48308,11.3709 8.48308,12.5519C 8.48308,13.7328 9.45064,14.6893 10.6452,14.6893C 11.8398,14.6893 12.8074,13.7328 12.8074,12.5519C 12.8074,11.3709 11.8398,10.4144 10.6452,10.4144 Z "/>
</svg>
