<?xml version="1.0" encoding="utf-8"?>
<!DOCTYPE svg PUBLIC "-//W3C//DTD SVG 1.1//EN" "http://www.w3.org/Graphics/SVG/1.1/DTD/svg11.dtd">
<svg xmlns="http://www.w3.org/2000/svg" xmlns:xlink="http://www.w3.org/1999/xlink" version="1.1" baseProfile="full" width="32" height="32" viewBox="0 0 32.00 32.00" enable-background="new 0 0 32.00 32.00" xml:space="preserve">
	<path fill="none" stroke-width="1.5" stroke-linejoin="miter" stroke="#FFFFFF" stroke-opacity="1" d="M 30,28.9727C 27.5,28.9727 25.5,12.0247 23,12.0247C 20.5,12.0247 18.5,29.0277 16,29.0277C 13.5,29.0277 11.5,11.9727 8.99999,11.9727C 6.49999,11.9727 4.49999,28.9997 1.99999,28.9997"/>
	<path fill="#FFFFFF" fill-opacity="1" stroke-width="0.2" stroke-linejoin="miter" d="M 19.4551,10.3683L 17.9001,9.3313L 14.9001,7.3313L 13.6521,6.4993L 14.9001,5.6673L 17.9001,3.6673L 19.4551,2.63129L 19.4551,4.4993L 19.4551,6.40131L 19.4551,8.4993L 19.4551,10.3683 Z "/>
	<line fill="none" stroke-width="1.33" stroke-linejoin="miter" stroke="#FFFFFF" stroke-opacity="1" x1="19" y1="6.50888" x2="30" y2="6.50888"/>
	<path fill="none" stroke-linejoin="miter" stroke="#FFFFFF" stroke-opacity="1" d="M 8.99999,3.99957L 11,6.99957L 8.99999,9.99957L 6.99999,6.99957L 8.99999,3.99957 Z "/>
</svg>
