<?xml version="1.0" encoding="utf-8"?>
<!DOCTYPE svg PUBLIC "-//W3C//DTD SVG 1.1//EN" "http://www.w3.org/Graphics/SVG/1.1/DTD/svg11.dtd">
<svg xmlns="http://www.w3.org/2000/svg" xmlns:xlink="http://www.w3.org/1999/xlink" version="1.1" baseProfile="full" width="32" height="32" viewBox="0 0 32.00 32.00" enable-background="new 0 0 32.00 32.00" xml:space="preserve">
	<path fill="#FFFFFF" fill-opacity="1" stroke-width="0.2" stroke-linejoin="miter" stroke="#FFFFFF" stroke-opacity="1" d="M 3.61726,11.9009C 3.61726,11.9009 4.22709,11.9009 4.22709,12.9006C 4.12179,13.435 3.91477,13.944 3.61726,14.4002C 3.32325,13.9531 3.11634,13.4545 3.00742,12.9306C 3.00742,11.9309 3.59726,11.9309 3.61726,11.9309M 3.61726,10.9311C 2.63822,11.017 1.91414,11.8803 2.0077,12.9306C 2.0077,13.9303 3.00742,15.28 3.33733,16.0897C 3.3968,16.2443 3.57033,16.3215 3.72492,16.262C 3.80413,16.2315 3.86671,16.1689 3.89718,16.0897C 4.1871,15.28 5.22681,13.9403 5.22681,12.9306C 5.35204,11.9558 4.66334,11.0641 3.61726,10.9311 Z "/>
	<path fill="#FFFFFF" fill-opacity="1" stroke-width="0.2" stroke-linejoin="miter" stroke="#FFFFFF" stroke-opacity="1" d="M 4.27707,16.2497M 3.61726,17.5693C 3.91477,18.0255 4.12179,18.5346 4.22709,19.0689C 4.22709,20.0686 3.62726,20.0686 3.61726,20.0686C 3.60726,20.0686 3.00742,20.0686 3.00742,19.0689C 3.11272,18.5346 3.31975,18.0255 3.61726,17.5693M 3.61726,15.7198C 3.49022,15.7179 3.37675,15.799 3.33733,15.9197C 3.00742,16.7196 2.0077,18.0592 2.0077,19.0689C 1.88247,20.0437 2.57117,20.9354 3.61726,21.0684C 4.5963,20.9825 5.32037,20.1192 5.22681,19.0689C 5.22681,18.0692 4.22709,16.7196 3.89718,15.9099C 3.85776,15.789 3.74429,15.7079 3.61726,15.7098L 3.61726,15.7198 Z "/>
	<path fill="#FFFFFF" fill-opacity="1" stroke-width="0.2" stroke-linejoin="miter" stroke="#FFFFFF" stroke-opacity="1" d="M 8.16601,10.0014L 8.16601,10.0014C 8.52493,9.97381 8.88129,10.0807 9.16573,10.3013C 9.38466,10.5866 9.49137,10.9423 9.46565,11.301C 9.41775,12.0189 9.09131,12.6899 8.5559,13.1705C 7.65384,13.795 6.63294,14.2271 5.55673,14.4402L 4.83692,14.6501C 4.9069,14.4201 4.97688,14.1702 5.04686,13.9303C 5.25989,12.8541 5.69206,11.8332 6.31651,10.9311C 6.78767,10.3913 7.45163,10.0575 8.16601,10.0014M 8.16601,9.00168C 7.16814,9.03417 6.22632,9.47075 5.55673,10.2113C 4.40704,11.371 4.00715,14.0703 3.4773,15.3199C 3.36684,15.5609 3.4726,15.8457 3.71352,15.9562C 3.77433,15.9841 3.84029,15.9989 3.90718,15.9998C 3.97309,16.0138 4.04121,16.0138 4.10712,15.9998C 5.35678,15.4198 8.10602,15.07 9.21572,13.9105C 10.9852,12.1408 10.4554,10.2713 9.83555,9.6415C 9.38115,9.22292 8.78381,8.99398 8.16601,9.00168 Z "/>
	<path fill="#FFFFFF" fill-opacity="1" stroke-width="0.2" stroke-linejoin="miter" stroke="#FFFFFF" stroke-opacity="1" d="M 4.77693,17.3494L 5.49674,17.5593C 6.57296,17.7724 7.59385,18.2045 8.49591,18.829C 9.03132,19.3096 9.35777,19.9806 9.40566,20.6985C 9.43139,21.0572 9.32468,21.4129 9.10575,21.6982C 8.82131,21.9188 8.46494,22.0257 8.10602,21.9981C 7.37692,21.9601 6.69317,21.6326 6.20654,21.0884C 5.58209,20.1863 5.14992,19.1654 4.93689,18.0892C 4.86691,17.8392 4.79693,17.5993 4.72695,17.3694M 3.89718,15.9998C 3.63218,16.0033 3.42019,16.2209 3.42368,16.4859C 3.42456,16.5528 3.43942,16.6188 3.4673,16.6796C 4.04714,17.9292 4.39704,20.6785 5.55673,21.7882C 6.22632,22.5287 7.16814,22.9654 8.16601,22.9978C 8.77365,23.0167 9.36613,22.8061 9.82555,22.408C 10.4554,21.7782 10.9852,19.9087 9.20572,18.1392C 8.00605,16.9995 5.35678,16.6296 4.10712,15.9998C 4.04121,15.9861 3.97309,15.9861 3.90718,15.9998L 3.89718,15.9998 Z "/>
	<path fill="#FFFFFF" fill-opacity="1" stroke-width="0.2" stroke-linejoin="miter" stroke="#FFFFFF" stroke-opacity="1" d="M 21.9124,10.7512C 29.0003,10.7512 29.0003,14.3002 29.0003,15.9998C 29.0003,17.6993 29.0003,21.2483 21.9124,21.2483C 16.6736,21.2483 9.15573,17.6393 5.77666,15.9998C 9.15573,14.3602 16.6736,10.7512 21.9124,10.7512M 21.9124,9.75147C 15.484,9.75147 5.9966,14.8501 3.91718,15.7498C 3.78742,15.8112 3.73203,15.9663 3.79345,16.0959C 3.81915,16.1503 3.86288,16.194 3.91718,16.2197C 5.91663,17.1394 15.454,22.218 21.9124,22.218C 29.3802,22.248 30,18.4691 30,15.9998C 30,13.5304 29.3802,9.75147 21.9124,9.75147 Z "/>
</svg>
