<?xml version="1.0" encoding="utf-8"?>
<!DOCTYPE svg PUBLIC "-//W3C//DTD SVG 1.1//EN" "http://www.w3.org/Graphics/SVG/1.1/DTD/svg11.dtd">
<svg xmlns="http://www.w3.org/2000/svg" xmlns:xlink="http://www.w3.org/1999/xlink" version="1.1" baseProfile="full" width="32" height="32" viewBox="0 0 32.00 32.00" enable-background="new 0 0 32.00 32.00" xml:space="preserve">
	<path fill="none" stroke-width="1.5" stroke-linecap="round" stroke-linejoin="miter" stroke="#FFFFFF" stroke-opacity="1" d="M 2.99998,12.4062C 4.28291,12.4062 6.31546,17.6363 7.59845,17.6363C 8.88138,17.6363 10.1644,12.3878 11.4474,12.3878C 12.7303,12.3878 13.0214,19.3859 14.3044,19.3859C 15.5875,19.3859 17.8623,14.4845 19.1453,14.4845C 20.4282,14.4845 21.7112,18.5111 22.9942,18.5111C 24.2772,18.5111 25.5602,10.6521 26.8432,10.6521C 28.1261,10.6521 28.4794,16.3242 29,17"/>
	<path fill="none" stroke-width="1.5" stroke-linecap="round" stroke-linejoin="miter" stroke="#FFFFFF" stroke-opacity="1" d="M 2.99998,19.6146C 4.28291,19.6146 6.31546,24.6918 7.59845,24.6918C 8.88138,24.6918 10.1644,21.4132 11.4474,21.4132C 12.7303,21.4132 14.0133,24.926 15.2963,24.926C 16.5793,24.926 17.8623,19.6637 19.1453,19.6637C 20.4282,19.6637 21.7112,24.926 22.9942,24.926C 24.2772,24.926 25.5602,20.5522 26.8432,20.5522C 28.1261,20.5522 28.4864,24 29,24.4999"/>
	<path fill="none" stroke-width="1.5" stroke-linecap="round" stroke-linejoin="miter" stroke="#FFFFFF" stroke-opacity="1" d="M 2.99998,5C 4.28291,5 6.31546,10.3467 7.59845,10.3467C 8.88138,10.3467 10.9083,6.18924 12.1912,6.18924C 13.4742,6.18924 14.0133,11.8304 15.2963,11.8304C 16.5793,11.8304 17.8623,7.08184 19.1453,7.08184C 20.5862,7.08184 21.5532,9.36041 22.9942,9.36041C 24.2772,9.36041 25.5602,5.09815 26.8432,5.09815C 28.1261,5.09815 28.2625,6.53771 29,7.49989"/>
	<path fill="none" stroke-width="1.33" stroke-linejoin="miter" stroke="#FFFFFF" stroke-opacity="1" d="M 2.5,2.00001L 2.5,29.5L 30,29.5"/>
</svg>
