<?xml version="1.0" encoding="utf-8"?>
<!DOCTYPE svg PUBLIC "-//W3C//DTD SVG 1.1//EN" "http://www.w3.org/Graphics/SVG/1.1/DTD/svg11.dtd">
<svg xmlns="http://www.w3.org/2000/svg" xmlns:xlink="http://www.w3.org/1999/xlink" version="1.1" baseProfile="full" width="659" height="120" viewBox="0 0 659.00 120.00" enable-background="new 0 0 659.00 120.00" xml:space="preserve">
	<g>
		<path fill="#FFFFFF" fill-opacity="1" fill-rule="evenodd" stroke-width="1.33333" stroke-linejoin="miter" d="M 31.0534,0L 0.453335,0L 0.453335,120L 15.2726,120L 15.2726,69.2038L 33.5876,69.2038C 53.9236,69.2038 68.1972,56.7934 68.1972,34.3776C 68.1972,0 41.478,0 31.0534,0 Z M 32.9462,57.114L 15.2726,57.114L 15.2726,12.0577L 31.9196,12.0577C 46.5462,12.0577 52.7366,20.6523 52.7366,33.7359C 52.7366,49.7382 43.6596,57.114 32.9462,57.114 Z "/>
		<path fill="#FFFFFF" fill-opacity="1" stroke-width="1.33333" stroke-linejoin="miter" d="M 118.491,0L 98.6047,0L 63.995,120L 79.4878,120L 88.3406,87.002L 91.4198,74.9122L 108.002,16.9322L 108.356,16.9322L 123.688,74.9122L 126.703,87.002L 135.299,120L 150.759,120L 118.491,0 Z "/>
		<path fill="#FFFFFF" fill-opacity="1" stroke-width="1.33333" stroke-linejoin="miter" d="M 141.49,0L 141.49,13.0521L 171.576,13.0521L 171.576,120L 186.363,120L 186.363,13.0521L 216.578,13.0521L 216.578,0L 141.49,0 Z "/>
		<path fill="#FFFFFF" fill-opacity="1" stroke-width="1.33333" stroke-linejoin="miter" d="M 283.648,0L 283.648,49.0648L 242.464,49.0648L 242.464,0L 227.644,0L 227.644,120L 242.464,120L 242.464,62.1168L 283.648,62.1168L 283.648,120L 298.467,120L 298.467,0L 283.648,0 Z "/>
		<path fill="#E21837" fill-opacity="1" stroke-width="1.33333" stroke-linejoin="miter" d="M 324.256,0L 309.533,0L 319.252,49.0648L 320.535,55.5428C 324.416,52.6886 328.618,49.995 333.172,47.5898L 324.256,0 Z M 349.306,61.3472L 348.858,63.8488L 348.12,68.1774L 345.938,80.8126L 342.923,98.1296L 342.603,98.1296L 339.042,79.0812L 336.893,67.6326C 332.531,70.3582 328.489,73.501 324.737,76.644L 333.333,120L 351.327,120L 357.967,82.7688L 360.212,70.1018L 361.335,63.8488L 362.361,58.0762C 357.743,58.6532 353.38,59.776 349.306,61.3472 Z M 377.758,0L 359.956,0L 353.028,40.1818C 357.1,39.2838 361.399,38.6748 365.89,38.5142L 368.68,22.8651L 369.001,22.8651L 371.695,38.5142C 376.314,38.6748 380.644,39.2838 384.75,40.214L 377.758,0 Z M 400.788,67.6968L 399.152,76.355L 395.078,98.1296L 394.758,98.1296L 391.518,79.3372L 389.304,66.542L 388.823,63.8488L 388.407,61.4114C 384.237,59.776 379.778,58.589 374.967,58.0442L 375.929,63.8488L 376.956,69.845L 379.105,82.5124L 385.488,120L 403.482,120L 412.559,75.778C 408.646,72.9556 404.765,70.1982 400.788,67.6968 Z M 413.361,0L 404.476,47.6862C 408.839,49.9628 412.912,52.5606 416.793,55.2222L 417.531,51.7268L 418.077,49.0648L 428.148,0L 413.361,0 Z "/>
		<path fill="#E21837" fill-opacity="1" stroke-width="1.33333" stroke-linejoin="miter" d="M 433.729,90.0484L 425.101,120L 440.561,120L 447.04,96.1092C 442.325,94.4738 437.899,92.4214 433.729,90.0484 Z M 502.531,85.3344C 498.746,88.894 494.544,92.0686 489.797,94.5058L 496.373,120L 511.833,120L 502.531,85.3344 Z M 496.598,63.2714L 494.031,53.6826L 489.733,37.7767L 479.565,0L 459.775,0L 449.029,37.1034L 444.667,52.1754L 441.299,63.8488L 439.246,70.9356C 443.32,73.501 447.49,75.7138 451.884,77.3494L 452.494,74.9122L 455.701,63.8488L 459.902,49.0648L 460.256,47.7824L 464.105,34.4735L 469.173,16.9322L 469.493,16.9322L 474.145,34.602L 477.673,47.9746L 477.962,49.0648L 481.843,63.8488L 484.761,74.9122L 484.793,75.0406C 489.124,72.026 492.94,67.921 496.598,63.2714 Z "/>
		<path fill="#E21837" fill-opacity="1" stroke-width="1.33333" stroke-linejoin="miter" d="M 569.665,0L 563.828,25.5267C 568.286,28.6693 572.135,32.838 575.631,37.4882L 585.125,0L 569.665,0 Z M 558.856,47.2372L 558.438,49.0648L 555.039,63.8488L 554.429,66.574L 551.254,80.5242L 546.122,103.004L 545.769,103.004L 537.494,66.6062L 536.852,63.8488L 533.452,49.0648L 532.874,46.4992C 529.443,50.2196 525.882,55.19 521.744,61.2188L 525.112,75.0084L 536.05,120L 554.846,120L 566.233,74.7516L 569.377,62.3412C 568.896,61.6036 568.414,60.8978 567.965,60.1924C 564.565,54.9978 561.646,50.6362 558.856,47.2372 Z M 522.258,0L 506.765,0L 515.779,36.7828C 519.499,32.2932 523.476,28.2845 528.031,25.3023L 522.258,0 Z "/>
		<path fill="#E21837" fill-opacity="1" stroke-width="1.33333" stroke-linejoin="miter" d="M 609.278,106.852L 609.278,98.0976C 603.761,96.3978 598.854,93.8642 594.523,90.818L 594.523,120L 658.547,120L 658.547,106.852L 609.278,106.852 Z M 609.278,77.3814L 609.278,63.8488L 653.799,63.8488L 653.799,50.7324L 609.278,50.7324L 609.278,13.0521L 656.557,13.0521L 656.557,0L 594.523,0L 594.523,64.522C 598.757,69.813 603.505,74.3348 609.278,77.3814 Z "/>
	</g>
</svg>
