<?xml version="1.0" encoding="utf-8"?>
<!DOCTYPE svg PUBLIC "-//W3C//DTD SVG 1.1//EN" "http://www.w3.org/Graphics/SVG/1.1/DTD/svg11.dtd">
<svg xmlns="http://www.w3.org/2000/svg" xmlns:xlink="http://www.w3.org/1999/xlink" version="1.1" baseProfile="full" width="32" height="32" viewBox="0 0 32.00 32.00" enable-background="new 0 0 32.00 32.00" xml:space="preserve">
	<g>
		<g>
			<g>
				<path fill="none" stroke-linejoin="miter" stroke="#FFFFFF" stroke-opacity="1" d="M 13.5,13.5L 2.49996,13.5L 2.49992,2.5L 13.4999,2.5L 13.5,13.5 Z "/>
				<rect x="2.99998" y="3" fill="#FFFFFF" fill-opacity="1" stroke-width="0.2" stroke-linejoin="miter" width="10" height="2"/>
			</g>
			<g>
				<path fill="none" stroke-linejoin="miter" stroke="#FFFFFF" stroke-opacity="1" d="M 29.5,13.5L 18.4999,13.5L 18.5,2.5L 29.4999,2.5L 29.5,13.5 Z "/>
				<rect x="19" y="3" fill="#FFFFFF" fill-opacity="1" stroke-width="0.2" stroke-linejoin="miter" width="10" height="2"/>
			</g>
			<g>
				<path fill="none" stroke-linejoin="miter" stroke="#FFFFFF" stroke-opacity="1" d="M 13.5,29.5L 2.49996,29.5L 2.49996,18.5L 13.4999,18.5L 13.5,29.5 Z "/>
				<path fill="#FFFFFF" fill-opacity="1" stroke-width="0.2" stroke-linejoin="miter" d="M 13,21L 2.99998,21L 2.99998,19L 13,19L 13,21 Z "/>
			</g>
			<g>
				<path fill="none" stroke-linejoin="miter" stroke="#FFFFFF" stroke-opacity="1" d="M 29.4998,29.5001L 18.5,29.5L 18.5,18.5L 29.5,18.5L 29.4998,29.5001 Z "/>
				<path fill="#FFFFFF" fill-opacity="1" stroke-width="0.2" stroke-linejoin="miter" d="M 29,21L 19,21L 19,19L 29,19L 29,21 Z "/>
			</g>
		</g>
	</g>
</svg>
