<?xml version="1.0" encoding="utf-8"?>
<!DOCTYPE svg PUBLIC "-//W3C//DTD SVG 1.1//EN" "http://www.w3.org/Graphics/SVG/1.1/DTD/svg11.dtd">
<svg xmlns="http://www.w3.org/2000/svg" xmlns:xlink="http://www.w3.org/1999/xlink" version="1.1" baseProfile="full" width="32" height="32" viewBox="0 0 32.00 32.00" enable-background="new 0 0 32.00 32.00" xml:space="preserve">
	<path fill="none" stroke-linejoin="round" stroke="#FFFFFF" stroke-opacity="1" d="M 16,2.5C 19.8597,2.5 23,5.64032 23,9.5C 23,13.3597 19.8597,16.5 16,16.5C 12.1403,16.5 9,13.3597 9,9.5C 9,5.64032 12.1403,2.5 16,2.5 Z "/>
	<path fill="none" stroke-linejoin="round" stroke="#FFFFFF" stroke-opacity="1" d="M 28.092,21.053C 27.747,18.981 25.999,17.5 23.899,17.5L 20.224,17.5C 18.95,18.135 17.52,18.5 16,18.5C 14.481,18.5 13.05,18.135 11.777,17.5L 8.102,17.5C 6.001,17.5 4.254,18.981 3.908,21.053L 2.5,29.5L 29.5,29.5L 28.092,21.053 Z "/>
</svg>
