<?xml version="1.0" encoding="utf-8"?>
<!DOCTYPE svg PUBLIC "-//W3C//DTD SVG 1.1//EN" "http://www.w3.org/Graphics/SVG/1.1/DTD/svg11.dtd">
<svg xmlns="http://www.w3.org/2000/svg" xmlns:xlink="http://www.w3.org/1999/xlink" version="1.1" baseProfile="full" width="32" height="32" viewBox="0 0 32.00 32.00" enable-background="new 0 0 32.00 32.00" xml:space="preserve">
	<line fill="none" stroke-width="1.33" stroke-linejoin="miter" stroke="#000000" stroke-opacity="1" x1="12.9233" y1="9.94089" x2="2.5313" y2="15.9409"/>
	<path fill="none" stroke-linejoin="miter" stroke="#000000" stroke-opacity="1" d="M 24,2.57369L 22,5.57369L 24,8.57369L 26,5.57369L 24,2.57369 Z "/>
	<path fill="none" stroke-width="1.5" stroke-linejoin="miter" stroke="#000000" stroke-opacity="1" d="M 2,29.4727C 3.916,29.4727 7.167,18.5247 9,18.5247C 10.833,18.5247 14.001,29.5277 16,29.5277C 17.999,29.5277 22,11.4727 24,11.4727C 26,11.4727 28.168,21.4997 30,21.4997"/>
	<path fill="#000000" fill-opacity="1" stroke-width="0.2" stroke-linejoin="miter" d="M 10.5991,6.82616L 11.5341,8.44416L 12.5831,10.2622L 13.5341,11.9092L 14.4681,13.5272L 15.2961,11.8512L 16.8941,8.61916L 17.5581,7.27517L 16.0621,7.17916"/>
</svg>
