<?xml version="1.0" encoding="utf-8"?>
<!DOCTYPE svg PUBLIC "-//W3C//DTD SVG 1.1//EN" "http://www.w3.org/Graphics/SVG/1.1/DTD/svg11.dtd">
<svg xmlns="http://www.w3.org/2000/svg" xmlns:xlink="http://www.w3.org/1999/xlink" version="1.1" baseProfile="full" width="32" height="32" viewBox="0 0 32.00 32.00" enable-background="new 0 0 32.00 32.00" xml:space="preserve">
	<path fill="none" stroke-width="1.33333" stroke-linejoin="miter" stroke="#000000" stroke-opacity="1" d="M 20.9912,19.3705C 20.8232,17.7552 19.9248,16.2318 18.4277,15.3295C 15.8867,13.7981 12.583,14.6165 11.0518,17.1537"/>
	<path fill="#000000" fill-opacity="1" stroke-width="0.2" stroke-linejoin="miter" d="M 9.28781,15.2366L 9.19101,20.2218L 13.5566,17.8129L 9.28781,15.2366 Z "/>
	<path fill="none" stroke-width="1.33333" stroke-linejoin="miter" stroke="#000000" stroke-opacity="1" d="M 10.0605,21.2903C 10.2314,22.9057 11.1299,24.4252 12.6269,25.3313C 15.166,26.8645 18.4697,26.0462 20,23.5052"/>
	<path fill="#000000" fill-opacity="1" stroke-width="0.2" stroke-linejoin="miter" d="M 21.7658,25.4207L 21.8579,20.4353L 17.4946,22.8483L 21.7658,25.4207 Z "/>
	<line fill="none" stroke-width="2" stroke-linejoin="miter" stroke="#ED1C24" stroke-opacity="1" x1="2" y1="8.5" x2="26" y2="8.5"/>
	<path fill="#000000" fill-opacity="1" fill-rule="evenodd" stroke-width="0.2" stroke-linejoin="miter" d="M 30,5L 26,5L 26,12L 30,12L 30,5"/>
</svg>
