<?xml version="1.0" encoding="utf-8"?>
<!DOCTYPE svg PUBLIC "-//W3C//DTD SVG 1.1//EN" "http://www.w3.org/Graphics/SVG/1.1/DTD/svg11.dtd">
<svg xmlns="http://www.w3.org/2000/svg" xmlns:xlink="http://www.w3.org/1999/xlink" version="1.1" baseProfile="full" width="32" height="32" viewBox="0 0 32.00 32.00" enable-background="new 0 0 32.00 32.00" xml:space="preserve">
	<path fill="none" stroke-width="1.33" stroke-linejoin="miter" stroke="#000000" stroke-opacity="1" d="M 9.50005,29.5L 29.5001,29.5L 29.5001,16.5L 18,16.5L 15.5,18.5L 9.50003,18.5L 9.50005,29.5 Z "/>
	<path fill="none" stroke-width="1.33" stroke-linejoin="miter" stroke="#000000" stroke-opacity="1" d="M 29.5,16L 29.5001,12.5L 18.5001,12.5L 17,10.5L 10.5001,10.5L 10.5,18"/>
	<line fill="none" stroke-width="1.33" stroke-linejoin="miter" stroke="#000000" stroke-opacity="1" x1="8.2731" y1="6.72549" x2="6.01683" y2="2.57825"/>
	<line fill="none" stroke-width="1.33" stroke-linejoin="miter" stroke="#000000" stroke-opacity="1" x1="6.64575" y1="8.36472" x2="2.76213" y2="5.98527"/>
	<line fill="none" stroke-width="1.33" stroke-linejoin="miter" stroke="#000000" stroke-opacity="1" x1="14.2098" y1="8.36074" x2="18.0851" y2="5.98627"/>
	<line fill="none" stroke-width="1.33" stroke-linejoin="miter" stroke="#000000" stroke-opacity="1" x1="12.5769" y1="6.72374" x2="14.7829" y2="2.66873"/>
	<line fill="none" stroke-width="1.33" stroke-linejoin="miter" stroke="#000000" stroke-opacity="1" x1="10.4246" y1="6.14677" x2="10.4246" y2="1.49995"/>
	<line fill="none" stroke-width="1.33" stroke-linejoin="miter" stroke="#000000" stroke-opacity="1" x1="6.01755" y1="10.6799" x2="1.50001" y2="10.6799"/>
	<line fill="none" stroke-width="1.33" stroke-linejoin="miter" stroke="#000000" stroke-opacity="1" x1="6.63919" y1="12.9992" x2="2.76128" y2="15.3751"/>
	<line fill="none" stroke-width="1.33" stroke-linejoin="miter" stroke="#000000" stroke-opacity="1" x1="8.2721" y1="14.6361" x2="6.16942" y2="18.501"/>
</svg>
