<?xml version="1.0" encoding="utf-8"?>
<!DOCTYPE svg PUBLIC "-//W3C//DTD SVG 1.1//EN" "http://www.w3.org/Graphics/SVG/1.1/DTD/svg11.dtd">
<svg xmlns="http://www.w3.org/2000/svg" xmlns:xlink="http://www.w3.org/1999/xlink" version="1.1" baseProfile="full" width="32" height="32" viewBox="0 0 32.00 32.00" enable-background="new 0 0 32.00 32.00" xml:space="preserve">
	<path fill="#000000" fill-opacity="1" stroke-width="0.2" stroke-linejoin="miter" d="M 11.9,19.1097L 12.74,19.9497L 16.34,18.5997L 28.42,6.47973L 25.33,3.38973L 13.21,15.5097L 11.9,19.1097 Z M 25.8102,2.10973L 29.76,6.10973C 29.9976,6.35103 29.9976,6.73843 29.76,6.97973L 17.0699,19.5497C 17.0089,19.6133 16.9335,19.6613 16.85,19.6897L 10.53,22.0597C 10.2128,22.1734 9.86364,22.0084 9.75001,21.6912C 9.70235,21.5582 9.70235,21.4127 9.75001,21.2797L 12.1,14.9996C 12.13,14.9007 12.1851,14.8111 12.26,14.7398L 24.9,2.08973C 25.1413,1.85213 25.5287,1.85213 25.77,2.08973L 25.8102,2.10973 Z "/>
	<path fill="#000000" fill-opacity="1" stroke-width="0.2" stroke-linejoin="miter" d="M 8.90001,21.3497C 10.4188,21.3497 11.65,22.5809 11.65,24.0997C 11.65,25.6185 10.4188,26.8497 8.90001,26.8497C 7.38122,26.8497 6.15001,25.6185 6.15001,24.0997C 6.15001,22.5809 7.38122,21.3497 8.90001,21.3497 Z "/>
	<path fill="#000000" fill-opacity="1" stroke-width="0.2" stroke-linejoin="miter" d="M 23.09,21.3497C 24.6088,21.3497 25.84,22.5809 25.84,24.0997C 25.84,25.6185 24.6088,26.8497 23.09,26.8497C 21.5712,26.8497 20.34,25.6185 20.34,24.0997C 20.34,22.5809 21.5712,21.3497 23.09,21.3497 Z "/>
	<path fill="#000000" fill-opacity="1" stroke-width="0.2" stroke-linejoin="miter" d="M 28,12L 24,12L 23,13L 28,13C 28.5523,13 29,13.4477 29,14L 29,28C 29,28.5523 28.5523,29 28,29L 4,29C 3.44772,29 3,28.5523 3,28L 3,14C 3,13.4477 3.44772,13 4,13L 14.33,13L 15.33,12L 4,12C 2.89543,12 2,12.8954 2,14L 2,28C 2,29.1046 2.89543,30 4,30L 28,30C 29.1046,30 30,29.1046 30,28L 30,14C 30,12.8954 29.1046,12 28,12 Z "/>
</svg>
