<?xml version="1.0" encoding="utf-8"?>
<!DOCTYPE svg PUBLIC "-//W3C//DTD SVG 1.1//EN" "http://www.w3.org/Graphics/SVG/1.1/DTD/svg11.dtd">
<svg xmlns="http://www.w3.org/2000/svg" xmlns:xlink="http://www.w3.org/1999/xlink" version="1.1" baseProfile="full" width="32" height="32" viewBox="0 0 32.00 32.00" enable-background="new 0 0 32.00 32.00" xml:space="preserve">
	
	<path fill="#000000" fill-opacity="1" stroke-width="0.2" stroke-linejoin="miter" stroke="#000000" stroke-opacity="1" d="M 20.9608,19.9998L 20.9608,29.4391C 22.465,28.9177 23.795,28.3147 24.7673,27.4306C 25.8313,26.4559 26.4825,25.1139 26.4825,23.1055C 26.4825,22.1398 26.2945,21.1015 25.9964,20.1585C 25.7533,19.3878 25.4369,18.6851 25.0837,18.141C 23.9555,19.2064 22.5247,19.882 20.9608,19.9998 Z M 20.0436,29.4391L 20.0436,21.6229C 20.3111,18.6033 19.8067,19.4611 21.2222,19.0614C 22.2999,18.9117 23.396,18.4221 24.2124,17.7058C 24.3683,17.5697 24.5151,17.4292 24.6618,17.2887C 24.6297,16.7083 24.4646,16.1416 24.1757,15.6338C 24.1069,15.7064 24.0243,15.7653 23.9326,15.8152C 23.7538,15.9195 23.529,15.9739 23.2906,15.9739C 23.0979,15.9739 22.887,15.9376 22.6714,15.8696C 22.277,15.7427 21.9239,15.5114 21.6625,15.2394C 21.3781,14.9402 21.1993,14.5775 21.1993,14.2284C 21.1993,14.1513 21.2084,14.0697 21.2314,13.9881C 21.2451,13.9292 21.2635,13.8702 21.291,13.8203C 21.0066,13.7795 20.7269,13.7659 20.438,13.7659C 20.2591,13.4576 20.0573,13.1675 19.8372,12.8909C 20.0481,12.8683 20.2729,12.8592 20.5022,12.8592C 22.1807,12.8592 23.4465,13.435 24.2949,14.3009C 25.0975,15.117 25.524,16.1779 25.5791,17.2615C 25.6708,17.3839 25.7671,17.5154 25.8588,17.6604L 27.0099,16.5225L 27.3722,14.3825C 27.4135,14.1332 27.6474,13.9654 27.8951,14.0108C 28.1473,14.0516 28.3124,14.2828 28.2711,14.5276L 27.8905,16.7854C 27.8813,16.8852 27.84,16.9849 27.7621,17.062L 26.3174,18.4856C 26.5284,18.9208 26.7118,19.3923 26.8724,19.891C 26.9732,20.2084 27.0604,20.5348 27.1338,20.8658L 29.0691,21.2466C 29.1975,21.2738 29.303,21.3464 29.3672,21.4506L 30.5,22.9422C 30.6513,23.1417 30.6101,23.4274 30.4083,23.577C 30.2065,23.7266 29.9176,23.6858 29.7662,23.4863L 28.716,22.1035L 27.308,21.8224C 27.3677,22.2531 27.3998,22.6884 27.3998,23.1055C 27.3998,23.917 27.3034,24.6333 27.1246,25.2771L 28.4821,26.2791C 28.5646,26.3426 28.6197,26.4242 28.6426,26.5103L 29.4131,28.7862C 29.491,29.022 29.358,29.2759 29.1196,29.3575C 28.8811,29.4346 28.6243,29.3031 28.5417,29.0673L 27.8171,26.9183L 26.8036,26.1657C 26.4596,26.9229 25.978,27.5576 25.3864,28.0971C 24.1665,29.2079 22.5063,29.897 20.6443,30.5C 20.548,30.5317 20.4517,30.5272 20.36,30.5C 18.498,29.897 16.8378,29.2079 15.6179,28.0971C 15.0263,27.5576 14.5447,26.9229 14.2008,26.1657L 13.1872,26.9183L 12.4626,29.0673C 12.3801,29.3031 12.1233,29.4346 11.8848,29.3575C 11.6463,29.2759 11.5133,29.022 11.5913,28.7862L 12.3617,26.5103C 12.3847,26.4242 12.4397,26.3426 12.5222,26.2791L 13.5037,25.5537L 14.0815,25.5537L 14.9392,25.5537C 15.2373,26.3108 15.6821,26.9183 16.237,27.4306C 17.2093,28.3147 18.5393,28.9177 20.0436,29.4391 Z M 23.3869,14.6999C 23.3685,14.6818 23.3502,14.6682 23.3318,14.6545C 23.0934,14.4641 22.8319,14.3009 22.5338,14.1694C 22.465,14.1558 22.4008,14.1468 22.3366,14.1468C 22.2862,14.1468 22.1165,14.1513 22.1165,14.2284C 22.1165,14.3417 22.1991,14.4823 22.3275,14.6183C 22.488,14.786 22.7081,14.9266 22.9558,15.0082C 23.0796,15.049 23.1897,15.0671 23.2906,15.0671C 23.3777,15.0671 23.4465,15.0535 23.4878,15.0309C 23.5107,15.0173 23.5107,15.0082 23.5107,14.9855C 23.5107,14.9447 23.5015,14.9039 23.4832,14.8631C 23.4602,14.8087 23.4281,14.7543 23.3869,14.6999 Z "/>
	<path fill="#000000" fill-opacity="1" stroke-width="0.2" stroke-linejoin="miter" d="M 20.039,19.9998L 20.039,29.4391C 18.5347,28.9177 17.2047,28.3147 16.2325,27.4306C 15.1685,26.4559 14.5172,25.1139 14.5172,23.1055C 14.5172,22.1398 14.7053,21.1015 15.0034,20.1585C 15.2464,19.3878 15.5629,18.6851 15.916,18.141C 17.0442,19.2064 18.4751,19.882 20.039,19.9998 Z M 20.9562,29.4391L 20.9562,21.6229C 20.5016,20.9974 20.541,19.2862 20.541,19.2862C 20.541,19.2862 20.9241,19.3153 19.7776,19.0614C 18.6998,18.9117 17.6037,18.4221 16.7874,17.7058C 16.6315,17.5697 16.4847,17.4292 16.3379,17.2887C 16.37,16.7083 16.5351,16.1416 16.8241,15.6338C 16.8929,15.7064 16.9754,15.7653 17.0671,15.8152C 17.246,15.9195 17.4707,15.9739 17.7092,15.9739C 17.9018,15.9739 18.1128,15.9376 18.3283,15.8696C 18.7227,15.7427 19.0759,15.5114 19.3373,15.2394C 19.6216,14.9402 19.8005,14.5775 19.8005,14.2284C 19.8005,14.1513 19.7913,14.0697 19.7684,13.9881C 19.7546,13.9292 19.7363,13.8702 19.7088,13.8203C 19.9931,13.7795 20.2729,13.7659 20.5618,13.7659C 20.7407,13.4576 20.9424,13.1675 21.1626,12.8909C 20.9516,12.8683 20.7269,12.8592 20.4976,12.8592C 18.8191,12.8592 17.5533,13.435 16.7048,14.3009C 15.9023,15.117 15.4757,16.1779 15.4207,17.2615C 15.329,17.3839 15.2327,17.5154 15.141,17.6604L 13.9898,16.5225L 13.6275,14.3825C 13.5862,14.1332 13.3523,13.9654 13.1047,14.0108C 12.8525,14.0516 12.6874,14.2828 12.7286,14.5276L 13.1093,16.7854C 13.1185,16.8852 13.1597,16.9849 13.2377,17.062L 14.6823,18.4856C 14.4714,18.9208 14.2879,19.3923 14.1274,19.891C 14.0265,20.2084 13.9394,20.5348 13.866,20.8658L 11.9306,21.2466C 11.8022,21.2738 11.6967,21.3464 11.6325,21.4506L 10.4998,22.9422C 10.3484,23.1417 10.3897,23.4274 10.5915,23.577C 10.7933,23.7266 11.0822,23.6858 11.2335,23.4863L 12.2838,22.1035L 13.6917,21.8224C 13.6321,22.2531 13.6,22.6884 13.6,23.1055C 13.6,23.917 13.6963,24.6333 13.8752,25.2771L 12.5177,26.2791C 12.4351,26.3426 12.3801,26.4242 12.3572,26.5103L 11.5867,28.7862C 11.5087,29.022 11.6417,29.2759 11.8802,29.3575C 12.1187,29.4346 12.3755,29.3031 12.458,29.0673L 13.1827,26.9183L 14.1962,26.1657C 14.5402,26.9229 15.0217,27.5576 15.6133,28.0971C 16.8332,29.2079 18.4934,29.897 20.3554,30.5C 20.4517,30.5317 20.548,30.5272 20.6398,30.5C 22.5017,29.897 24.1619,29.2079 25.3818,28.0971C 25.9735,27.5576 26.455,26.9229 26.799,26.1657L 27.8125,26.9183L 28.5371,29.0673C 28.6197,29.3031 28.8765,29.4346 29.115,29.3575C 29.3535,29.2759 29.4865,29.022 29.4085,28.7862L 28.638,26.5103C 28.6151,26.4242 28.5601,26.3426 28.4775,26.2791L 27.4961,25.5537L 26.9182,25.5537L 26.0606,25.5537C 25.7625,26.3108 25.3176,26.9183 24.7627,27.4306C 23.7905,28.3147 22.4605,28.9177 20.9562,29.4391 Z M 17.6129,14.6999C 17.6312,14.6818 17.6496,14.6682 17.6679,14.6545C 17.9064,14.4641 18.1678,14.3009 18.4659,14.1694C 18.5347,14.1558 18.5989,14.1468 18.6631,14.1468C 18.7136,14.1468 18.8833,14.1513 18.8833,14.2284C 18.8833,14.3417 18.8007,14.4823 18.6723,14.6183C 18.5118,14.786 18.2916,14.9266 18.044,15.0082C 17.9202,15.049 17.8101,15.0671 17.7092,15.0671C 17.6221,15.0671 17.5533,15.0535 17.512,15.0309C 17.4891,15.0173 17.4891,15.0082 17.4891,14.9855C 17.4891,14.9447 17.4982,14.9039 17.5166,14.8631C 17.5395,14.8087 17.5716,14.7543 17.6129,14.6999 Z "/>
	<path fill="none" stroke-linejoin="miter" stroke="#000000" stroke-opacity="1" d="M 15.8335,17.5873C 16.329,17.9498 20.0757,21.52 25.1663,17.6138"/>
	<path fill="#40B449" fill-opacity="1" stroke-width="1.33" stroke-linejoin="miter" stroke="#40B449" stroke-opacity="1" d="M 2.49992,21L 14.8333,11.7502L 2.49995,2.50024L 2.49992,21 Z "/>
</svg>
