<?xml version="1.0" encoding="utf-8"?>
<!DOCTYPE svg PUBLIC "-//W3C//DTD SVG 1.1//EN" "http://www.w3.org/Graphics/SVG/1.1/DTD/svg11.dtd">
<svg xmlns="http://www.w3.org/2000/svg" xmlns:xlink="http://www.w3.org/1999/xlink" version="1.1" baseProfile="full" width="32" height="32" viewBox="0 0 32.00 32.00" enable-background="new 0 0 32.00 32.00" xml:space="preserve">
	<path fill="none" stroke-width="1.33" stroke-linejoin="miter" stroke="#000000" stroke-opacity="1" d="M 18.2509,5.89395C 19.4419,6.15891 20.5553,6.62867 21.5529,7.26421L 23.9528,4.86327L 27.1361,8.04652L 24.7344,10.4482C 25.3691,11.4458 25.8382,12.5594 26.1027,13.7504L 29.5,13.7504L 29.5,18.2496L 26.1027,18.2496C 25.8381,19.4401 25.3686,20.5533 24.7332,21.5508L 27.1361,23.9553L 23.9546,27.1366L 21.5517,24.7328C 20.5538,25.3668 19.4402,25.8356 18.249,26.0994L 18.249,29.5009L 13.7496,29.5009L 13.7496,26.1017C 12.5598,25.8374 11.4471,25.3681 10.45,24.7334L 8.04753,27.1366L 4.86438,23.9535L 7.26568,21.552C 6.63102,20.5544 6.16172,19.4408 5.89784,18.2496L 2.5002,18.2496L 2.5002,13.7504L 5.89599,13.7504C 6.16058,12.559 6.6302,11.4453 7.26537,10.4473L 4.86438,8.04466L 8.04583,4.86327L 10.4453,7.26369C 11.4442,6.62785 12.559,6.15803 13.7514,5.89416L 13.7514,2.49909L 18.2509,2.49909L 18.2509,5.89395 Z "/>
	<ellipse fill="none" stroke-width="1.33" stroke-linejoin="miter" stroke="#000000" stroke-opacity="1" cx="16" cy="16" rx="6.53125" ry="6.53125"/>
</svg>
