<?xml version="1.0" encoding="utf-8"?>
<!DOCTYPE svg PUBLIC "-//W3C//DTD SVG 1.1//EN" "http://www.w3.org/Graphics/SVG/1.1/DTD/svg11.dtd">
<svg xmlns="http://www.w3.org/2000/svg" xmlns:xlink="http://www.w3.org/1999/xlink" version="1.1" baseProfile="full" width="32" height="32" viewBox="0 0 32.00 32.00" enable-background="new 0 0 32.00 32.00" xml:space="preserve">
	<path fill="#000000" fill-opacity="1" stroke-width="0.2" stroke-linejoin="miter" stroke="#000000" stroke-opacity="1" d="M 25.6587,9.47145L 19.4011,15.7238C 19.4276,15.8141 19.4382,15.9044 19.4382,16C 19.4382,16.5843 18.9602,17.0624 18.3758,17.0624C 17.7915,17.0624 17.3134,16.5843 17.3134,16C 17.3134,15.9044 17.324,15.8141 17.3506,15.7238L 12.6866,11.0651L 13.4409,10.3108L 18.0996,14.9748C 18.1899,14.9482 18.2802,14.9376 18.3758,14.9376C 18.4714,14.9376 18.5618,14.9482 18.6521,14.9748L 24.9044,8.71713L 25.6587,9.47145 Z M 2.81674,15.0916L 6.68925,18.9695L 6.68925,16C 6.68925,9.54582 11.9216,4.31342 18.3758,4.31342C 24.83,4.31342 30.0624,9.54582 30.0624,16C 30.0624,22.4542 24.83,27.6866 18.3758,27.6866C 15.0186,27.6866 11.8473,26.2576 9.62152,23.7397L 10.413,23.0385C 12.4369,25.328 15.3214,26.6242 18.3758,26.6242C 24.2457,26.6242 29,21.8699 29,16C 29,10.1301 24.2457,5.37583 18.3758,5.37583C 12.506,5.37583 7.75166,10.1301 7.75166,16L 7.75166,18.9695L 11.6242,15.0916L 12.3785,15.8459L 7.22046,20.9987L 2.06242,15.8459L 2.81674,15.0916 Z "/>
</svg>
