<?xml version="1.0" encoding="utf-8"?>
<!DOCTYPE svg PUBLIC "-//W3C//DTD SVG 1.1//EN" "http://www.w3.org/Graphics/SVG/1.1/DTD/svg11.dtd">
<svg xmlns="http://www.w3.org/2000/svg" xmlns:xlink="http://www.w3.org/1999/xlink" version="1.1" baseProfile="full" width="32" height="32" viewBox="0 0 32.00 32.00" enable-background="new 0 0 32.00 32.00" xml:space="preserve">
	<path fill="none" stroke-width="1.33" stroke-linejoin="miter" stroke="#000000" stroke-opacity="1" d="M 2.52377,11.4735L 2.52377,28.4735L 19.5342,28.4944L 19.526,14.5104L 16.5041,11.5101L 2.52377,11.4735 Z "/>
	<path fill="none" stroke-width="1.33" stroke-linejoin="miter" stroke="#000000" stroke-opacity="1" d="M 19.4625,19.4877L 29.4896,19.5L 29.4814,5.51603L 26.4595,2.51574L 12.4791,2.47916L 12.4791,11.583"/>
	<path fill="none" stroke-width="1.33" stroke-linejoin="miter" stroke="#000000" stroke-opacity="1" d="M 6.5186,11.7346L 6.51855,15.5156L 13.5185,15.5156L 13.5341,11.5156"/>
	<path fill="none" stroke-width="1.33" stroke-linejoin="miter" stroke="#000000" stroke-opacity="1" d="M 16.4978,2.71374L 16.4977,6.49482L 23.4977,6.49482L 23.5133,2.49481"/>
	<path fill="#000000" fill-opacity="1" stroke-linejoin="miter" stroke="#000000" stroke-opacity="1" d="M 11.4999,13.5L 9.99993,13.5L 10,12L 11.5,12L 11.4999,13.5 Z "/>
	<path fill="#000000" fill-opacity="1" stroke-linejoin="miter" stroke="#000000" stroke-opacity="1" d="M 21.5,4.49998L 20,4.49998L 20,3L 21.5,3L 21.5,4.49998 Z "/>
</svg>
