<?xml version="1.0" encoding="utf-8"?>
<!DOCTYPE svg PUBLIC "-//W3C//DTD SVG 1.1//EN" "http://www.w3.org/Graphics/SVG/1.1/DTD/svg11.dtd">
<svg xmlns="http://www.w3.org/2000/svg" xmlns:xlink="http://www.w3.org/1999/xlink" version="1.1" baseProfile="full" width="32" height="32" viewBox="0 0 32.00 32.00" enable-background="new 0 0 32.00 32.00" xml:space="preserve">
	<rect x="2.5" y="5.50001" fill="none" stroke-width="1.33" stroke-linejoin="miter" stroke="#000000" stroke-opacity="1" width="27" height="24"/>
	<line fill="none" stroke-width="1.33" stroke-linejoin="miter" stroke="#000000" stroke-opacity="1" x1="3" y1="11" x2="29" y2="11"/>
	<rect x="8.5" y="2" fill="#000000" fill-opacity="1" stroke-width="1.33" stroke-linejoin="miter" width="2" height="5.99998"/>
	<path fill="#000000" fill-opacity="1" stroke-width="1.33" stroke-linejoin="miter" d="M 21.5,2L 23.5,2L 23.5,8L 21.5,8L 21.5,2 Z "/>
	<rect x="4.5" y="24" fill="#000000" fill-opacity="1" stroke-width="1.33" stroke-linejoin="miter" width="3" height="3"/>
	<rect x="4.5" y="19" fill="#000000" fill-opacity="1" stroke-width="1.33" stroke-linejoin="miter" width="3" height="3"/>
	<rect x="9.5" y="24" fill="#000000" fill-opacity="1" stroke-width="1.33" stroke-linejoin="miter" width="3" height="3"/>
	<rect x="9.5" y="19" fill="#000000" fill-opacity="1" stroke-width="1.33" stroke-linejoin="miter" width="3" height="3"/>
	<rect x="9.5" y="14" fill="#000000" fill-opacity="1" stroke-width="1.33" stroke-linejoin="miter" width="3" height="3"/>
	<rect x="14.5" y="24" fill="#000000" fill-opacity="1" stroke-width="1.33" stroke-linejoin="miter" width="3" height="3"/>
	<rect x="14.5" y="19" fill="#000000" fill-opacity="1" stroke-width="1.33" stroke-linejoin="miter" width="3" height="3"/>
	<rect x="14.5" y="14" fill="#000000" fill-opacity="1" stroke-width="1.33" stroke-linejoin="miter" width="3" height="3"/>
	<rect x="19.5" y="19" fill="#000000" fill-opacity="1" stroke-width="1.33" stroke-linejoin="miter" width="3" height="3"/>
	<rect x="19.5" y="14" fill="#000000" fill-opacity="1" stroke-width="1.33" stroke-linejoin="miter" width="3" height="3"/>
	<rect x="24.5" y="19" fill="#000000" fill-opacity="1" stroke-width="1.33" stroke-linejoin="miter" width="3" height="3"/>
	<rect x="24.5" y="14" fill="#000000" fill-opacity="1" stroke-width="1.33" stroke-linejoin="miter" width="3" height="3"/>
</svg>
