<?xml version="1.0" encoding="utf-8"?>
<!DOCTYPE svg PUBLIC "-//W3C//DTD SVG 1.1//EN" "http://www.w3.org/Graphics/SVG/1.1/DTD/svg11.dtd">
<svg xmlns="http://www.w3.org/2000/svg" xmlns:xlink="http://www.w3.org/1999/xlink" version="1.1" baseProfile="full" width="32" height="32" viewBox="0 0 32.00 32.00" enable-background="new 0 0 32.00 32.00" xml:space="preserve">
	<path fill="#000000" fill-opacity="1" stroke-width="0.2" stroke-linejoin="miter" d="M 29.9899,26L 28.9795,26L 28.9795,21.7262L 25.2716,16.5027L 21.0585,16.5027L 21.0585,25.4847C 21.0585,25.7693 20.8277,26 20.5431,26L 15,26L 15,25L 19.9975,24.9897L 19.9975,15.9874C 19.9975,15.7028 20.2282,15.4721 20.5128,15.4721L 25.4736,15.4721C 25.6548,15.4474 25.8354,15.5204 25.9485,15.6641L 29.909,21.2311C 29.9704,21.3201 30.0022,21.4261 29.9998,21.5342L 29.9899,26 Z "/>
	<path fill="#000000" fill-opacity="1" stroke-width="0.2" stroke-linejoin="miter" d="M 25.0311,25.0104C 26.1471,25.0104 27.0518,25.9151 27.0518,27.0311C 27.0518,28.1471 26.1471,29.0518 25.0311,29.0518C 23.915,29.0518 23.0104,28.1471 23.0104,27.0311C 23.0104,25.9151 23.915,25.0104 25.0311,25.0104M 25.0311,24C 23.357,24 22,25.3571 22,27.0311C 22,28.7051 23.357,30.0621 25.0311,30.0621C 26.7051,30.0621 28.0621,28.7051 28.0621,27.0311C 28.0621,25.3571 26.7051,24 25.0311,24 Z "/>
	<path fill="#000000" fill-opacity="1" stroke-width="0.2" stroke-linejoin="miter" d="M 4.96894,24.9482C 6.08495,24.9482 6.98965,25.8529 6.98965,26.9689C 6.98965,28.0849 6.08495,28.9897 4.96894,28.9897C 3.85294,28.9897 2.94824,28.0849 2.94824,26.9689C 2.94824,25.8529 3.85294,24.9482 4.96894,24.9482M 4.96894,23.9379C 3.29494,23.9379 1.93788,25.2949 1.93788,26.9689C 1.93788,28.643 3.29494,30 4.96894,30C 6.64295,30 8,28.643 8,26.9689C 8,25.2949 6.64295,23.9379 4.96894,23.9379 Z "/>
	<path fill="#000000" fill-opacity="1" stroke-width="0.2" stroke-linejoin="miter" d="M 11.5311,25.0104C 12.6471,25.0104 13.5518,25.9151 13.5518,27.0311C 13.5518,28.1471 12.6471,29.0518 11.5311,29.0518C 10.415,29.0518 9.51036,28.1471 9.51036,27.0311C 9.51036,25.9151 10.415,25.0104 11.5311,25.0104M 11.5311,24C 9.85706,24 8.5,25.3571 8.5,27.0311C 8.5,28.7051 9.85706,30.0621 11.5311,30.0621C 13.2051,30.0621 14.5621,28.7051 14.5621,27.0311C 14.5621,25.3571 13.2051,24 11.5311,24 Z "/>
	<path fill="#000000" fill-opacity="1" stroke-width="0.2" stroke-linejoin="miter" d="M 12.5104,8.16353L 12.5104,5C 13.329,4.72104 13.7665,3.83112 13.4875,3.01253C 13.2085,2.19385 12.3187,1.75636 11.5,2.03532C 10.6813,2.31438 10.2438,3.2042 10.5229,4.02289C 10.6795,4.48239 11.0404,4.84339 11.5,5L 11.5,8.16353L 5.10446,23.2481L 6.19565,23.2481L 7.71118,19.6715L 16.279,19.6715L 17.7945,23.2481L 18.8958,23.2481L 12.5104,8.16353 Z M 12.0254,9.55798L 13.8541,13.9428L 10.1461,13.9428L 12.0254,9.55798 Z M 8.16583,18.651L 9.72178,14.9531L 14.2886,14.9531L 15.8647,18.6611L 8.16583,18.651 Z "/>
</svg>
