<?xml version="1.0" encoding="utf-8"?>
<!DOCTYPE svg PUBLIC "-//W3C//DTD SVG 1.1//EN" "http://www.w3.org/Graphics/SVG/1.1/DTD/svg11.dtd">
<svg xmlns="http://www.w3.org/2000/svg" xmlns:xlink="http://www.w3.org/1999/xlink" version="1.1" baseProfile="full" width="32" height="32" viewBox="0 0 32.00 32.00" enable-background="new 0 0 32.00 32.00" xml:space="preserve">
	<rect x="26" y="24" fill="#1B45FF" fill-opacity="1" stroke-width="0.2" stroke-linejoin="miter" width="1" height="3"/>
	<rect x="27" y="28" fill="#18FF49" fill-opacity="1" stroke-width="0.2" stroke-linejoin="miter" width="1" height="2"/>
	<rect x="18" y="28" fill="#ED1C24" fill-opacity="1" stroke-width="0.2" stroke-linejoin="miter" width="1" height="2"/>
	<rect x="28" y="29" fill="#1B45FF" fill-opacity="1" stroke-width="0.2" stroke-linejoin="miter" width="1" height="1"/>
	<rect x="29" y="29" fill="#1B45FF" fill-opacity="1" stroke-width="0.2" stroke-linejoin="miter" width="1" height="1"/>
	<rect x="24" y="20" fill="#1B45FF" fill-opacity="1" stroke-width="0.2" stroke-linejoin="miter" width="1" height="5"/>
	<rect x="23" y="21" fill="#1B45FF" fill-opacity="1" stroke-width="0.2" stroke-linejoin="miter" width="1" height="2"/>
	<rect x="22" y="18" fill="#1B45FF" fill-opacity="1" stroke-width="0.2" stroke-linejoin="miter" width="1" height="4"/>
	<rect x="24.999" y="21" fill="#1B45FF" fill-opacity="1" stroke-width="0.2" stroke-linejoin="miter" width="1.001" height="5"/>
	<rect x="22" y="28" fill="#ED1C24" fill-opacity="1" stroke-width="0.2" stroke-linejoin="miter" width="1" height="2"/>
	<rect x="18" y="8.99999" fill="#1B45FF" fill-opacity="1" stroke-width="0.2" stroke-linejoin="miter" width="1" height="6"/>
	<rect x="20" y="12" fill="#1B45FF" fill-opacity="1" stroke-width="0.2" stroke-linejoin="miter" width="1" height="7"/>
	<rect x="21" y="20" fill="#18FF49" fill-opacity="1" stroke-width="0.2" stroke-linejoin="miter" width="1" height="6"/>
	<rect x="20" y="19" fill="#18FF49" fill-opacity="1" stroke-width="0.2" stroke-linejoin="miter" width="1" height="5"/>
	<rect x="18" y="15" fill="#18FF49" fill-opacity="1" stroke-width="0.2" stroke-linejoin="miter" width="1" height="6"/>
	<rect x="22" y="22" fill="#18FF49" fill-opacity="1" stroke-width="0.2" stroke-linejoin="miter" width="1" height="6"/>
	<rect x="23" y="23" fill="#18FF49" fill-opacity="1" stroke-width="0.2" stroke-linejoin="miter" width="1" height="7"/>
	<rect x="18" y="26" fill="#ED1C24" fill-opacity="1" stroke-width="0.2" stroke-linejoin="miter" width="1" height="2"/>
	<rect x="20" y="28" fill="#ED1C24" fill-opacity="1" stroke-width="0.2" stroke-linejoin="miter" width="1" height="2"/>
	<rect x="21" y="27" fill="#ED1C24" fill-opacity="1" stroke-width="0.2" stroke-linejoin="miter" width="1" height="3"/>
	<rect x="21" y="14" fill="#1B45FF" fill-opacity="1" stroke-width="0.2" stroke-linejoin="miter" width="1" height="6"/>
	<rect x="20" y="24" fill="#FFF200" fill-opacity="1" stroke-width="0.2" stroke-linejoin="miter" width="1" height="4"/>
	<rect x="18" y="21" fill="#FFF200" fill-opacity="1" stroke-width="0.2" stroke-linejoin="miter" width="1" height="5"/>
	<rect x="17" y="26" fill="#ED1C24" fill-opacity="1" stroke-width="0.2" stroke-linejoin="miter" width="1" height="4"/>
	<rect x="17" y="5.99999" fill="#1B45FF" fill-opacity="1" stroke-width="0.2" stroke-linejoin="miter" width="1" height="6"/>
	<rect x="17" y="12" fill="#18FF49" fill-opacity="1" stroke-width="0.2" stroke-linejoin="miter" width="1" height="8"/>
	<rect x="17" y="25" fill="#ED1C24" fill-opacity="1" stroke-width="0.2" stroke-linejoin="miter" width="1" height="1"/>
	<rect x="17" y="20" fill="#FFF200" fill-opacity="1" stroke-width="0.2" stroke-linejoin="miter" width="1" height="5"/>
	<rect x="19" y="28" fill="#ED1C24" fill-opacity="1" stroke-width="0.2" stroke-linejoin="miter" width="1" height="2"/>
	<rect x="19" y="9.99999" fill="#1B45FF" fill-opacity="1" stroke-width="0.2" stroke-linejoin="miter" width="1" height="7"/>
	<rect x="19" y="17" fill="#18FF49" fill-opacity="1" stroke-width="0.2" stroke-linejoin="miter" width="1" height="5"/>
	<rect x="19" y="25" fill="#ED1C24" fill-opacity="1" stroke-width="0.2" stroke-linejoin="miter" width="1" height="3"/>
	<rect x="19" y="22" fill="#FFF200" fill-opacity="1" stroke-width="0.2" stroke-linejoin="miter" width="1" height="3"/>
	<rect x="21" y="26" fill="#FFF200" fill-opacity="1" stroke-width="0.2" stroke-linejoin="miter" width="1" height="1"/>
	<rect x="24" y="25" fill="#18FF49" fill-opacity="1" stroke-width="0.2" stroke-linejoin="miter" width="1" height="5"/>
	<rect x="25" y="26" fill="#18FF49" fill-opacity="1" stroke-width="0.2" stroke-linejoin="miter" width="1" height="4"/>
	<rect x="26" y="27" fill="#18FF49" fill-opacity="1" stroke-width="0.2" stroke-linejoin="miter" width="1" height="3"/>
	<rect x="16" y="22" fill="#ED1C24" fill-opacity="1" stroke-width="0.2" stroke-linejoin="miter" width="1.001" height="8"/>
	<rect x="16.001" y="1.99999" fill="#18FF49" fill-opacity="1" stroke-width="0.2" stroke-linejoin="miter" width="1" height="14"/>
	<rect x="16.001" y="16" fill="#FFF200" fill-opacity="1" stroke-width="0.2" stroke-linejoin="miter" width="1" height="6"/>
	<rect x="4.99999" y="23" fill="#1B45FF" fill-opacity="1" stroke-width="0.2" stroke-linejoin="miter" width="1" height="5"/>
	<rect x="3.99999" y="26" fill="#1B45FF" fill-opacity="1" stroke-width="0.2" stroke-linejoin="miter" width="1" height="3"/>
	<rect x="13" y="28" fill="#ED1C24" fill-opacity="1" stroke-width="0.2" stroke-linejoin="miter" width="1" height="2"/>
	<rect x="2.99999" y="28" fill="#1B45FF" fill-opacity="1" stroke-width="0.2" stroke-linejoin="miter" width="1" height="2"/>
	<rect x="1.99999" y="29" fill="#1B45FF" fill-opacity="1" stroke-width="0.2" stroke-linejoin="miter" width="1" height="1"/>
	<rect x="6.99999" y="23" fill="#1B45FF" fill-opacity="1" stroke-width="0.2" stroke-linejoin="miter" width="1" height="5"/>
	<rect x="7.99999" y="21" fill="#1B45FF" fill-opacity="1" stroke-width="0.2" stroke-linejoin="miter" width="1" height="5"/>
	<rect x="9" y="19" fill="#1B45FF" fill-opacity="1" stroke-width="0.2" stroke-linejoin="miter" width="1" height="4"/>
	<rect x="5.99999" y="24" fill="#1B45FF" fill-opacity="1" stroke-width="0.2" stroke-linejoin="miter" width="1.001" height="4"/>
	<rect x="9" y="28" fill="#FFF200" fill-opacity="1" stroke-width="0.2" stroke-linejoin="miter" width="1" height="1"/>
	<rect x="13" y="8.99999" fill="#1B45FF" fill-opacity="1" stroke-width="0.2" stroke-linejoin="miter" width="1" height="5"/>
	<rect x="11" y="12" fill="#1B45FF" fill-opacity="1" stroke-width="0.2" stroke-linejoin="miter" width="1" height="7"/>
	<rect x="10" y="22" fill="#18FF49" fill-opacity="1" stroke-width="0.2" stroke-linejoin="miter" width="1" height="4"/>
	<rect x="11" y="19" fill="#18FF49" fill-opacity="1" stroke-width="0.2" stroke-linejoin="miter" width="1" height="5"/>
	<rect x="13" y="14" fill="#18FF49" fill-opacity="1" stroke-width="0.2" stroke-linejoin="miter" width="1" height="8"/>
	<rect x="9" y="23" fill="#18FF49" fill-opacity="1" stroke-width="0.2" stroke-linejoin="miter" width="1" height="5"/>
	<rect x="7.99999" y="26" fill="#18FF49" fill-opacity="1" stroke-width="0.2" stroke-linejoin="miter" width="1" height="4"/>
	<rect x="13" y="25" fill="#ED1C24" fill-opacity="1" stroke-width="0.2" stroke-linejoin="miter" width="1" height="3"/>
	<rect x="11" y="28" fill="#ED1C24" fill-opacity="1" stroke-width="0.2" stroke-linejoin="miter" width="1" height="2"/>
	<rect x="10" y="29" fill="#ED1C24" fill-opacity="1" stroke-width="0.2" stroke-linejoin="miter" width="1" height="1"/>
	<rect x="9" y="29" fill="#ED1C24" fill-opacity="1" stroke-width="0.2" stroke-linejoin="miter" width="1" height="1"/>
	<rect x="10" y="16" fill="#1B45FF" fill-opacity="1" stroke-width="0.2" stroke-linejoin="miter" width="1" height="6"/>
	<rect x="11" y="24" fill="#FFF200" fill-opacity="1" stroke-width="0.2" stroke-linejoin="miter" width="1" height="4"/>
	<rect x="13" y="22" fill="#FFF200" fill-opacity="1" stroke-width="0.2" stroke-linejoin="miter" width="1" height="3"/>
	<rect x="14" y="24" fill="#ED1C24" fill-opacity="1" stroke-width="0.2" stroke-linejoin="miter" width="1" height="6"/>
	<rect x="14" y="6.99999" fill="#1B45FF" fill-opacity="1" stroke-width="0.2" stroke-linejoin="miter" width="1" height="4"/>
	<rect x="14" y="11" fill="#18FF49" fill-opacity="1" stroke-width="0.2" stroke-linejoin="miter" width="1" height="10"/>
	<rect x="14" y="21" fill="#FFF200" fill-opacity="1" stroke-width="0.2" stroke-linejoin="miter" width="1" height="3"/>
	<rect x="12" y="28" fill="#ED1C24" fill-opacity="1" stroke-width="0.2" stroke-linejoin="miter" width="1" height="2"/>
	<rect x="12" y="11" fill="#1B45FF" fill-opacity="1" stroke-width="0.2" stroke-linejoin="miter" width="1" height="6"/>
	<rect x="12" y="17" fill="#18FF49" fill-opacity="1" stroke-width="0.2" stroke-linejoin="miter" width="1" height="5"/>
	<rect x="12" y="25" fill="#ED1C24" fill-opacity="1" stroke-width="0.2" stroke-linejoin="miter" width="1" height="3"/>
	<rect x="12" y="22" fill="#FFF200" fill-opacity="1" stroke-width="0.2" stroke-linejoin="miter" width="1" height="3"/>
	<rect x="10" y="26" fill="#FFF200" fill-opacity="1" stroke-width="0.2" stroke-linejoin="miter" width="1" height="3"/>
	<rect x="6.99999" y="28" fill="#18FF49" fill-opacity="1" stroke-width="0.2" stroke-linejoin="miter" width="1" height="2"/>
	<rect x="5.99999" y="28" fill="#18FF49" fill-opacity="1" stroke-width="0.2" stroke-linejoin="miter" width="1" height="2"/>
	<rect x="4.99999" y="28" fill="#18FF49" fill-opacity="1" stroke-width="0.2" stroke-linejoin="miter" width="1" height="2"/>
	<rect x="3.99999" y="29" fill="#18FF49" fill-opacity="1" stroke-width="0.2" stroke-linejoin="miter" width="1" height="1"/>
	<rect x="14.999" y="23" fill="#ED1C24" fill-opacity="1" stroke-width="0.2" stroke-linejoin="miter" width="1.001" height="7"/>
	<rect x="14.999" y="3.99999" fill="#18FF49" fill-opacity="1" stroke-width="0.2" stroke-linejoin="miter" width="1" height="14"/>
	<rect x="14.999" y="18" fill="#FFF200" fill-opacity="1" stroke-width="0.2" stroke-linejoin="miter" width="1" height="5"/>
</svg>
