<?xml version="1.0" encoding="utf-8"?>
<!DOCTYPE svg PUBLIC "-//W3C//DTD SVG 1.1//EN" "http://www.w3.org/Graphics/SVG/1.1/DTD/svg11.dtd">
<svg xmlns="http://www.w3.org/2000/svg" xmlns:xlink="http://www.w3.org/1999/xlink" version="1.1" baseProfile="full" width="32" height="32" viewBox="0 0 32.00 32.00" enable-background="new 0 0 32.00 32.00" xml:space="preserve">
	<path fill="#BFF4FF" fill-opacity="1" stroke-width="0.2" stroke-linejoin="miter" d="M 6.99999,30L 7.99999,30L 7.99989,7.99983L 6.99989,7.99983L 6.99999,30 Z "/>
	<path fill="#80E9FF" fill-opacity="1" stroke-width="0.2" stroke-linejoin="miter" d="M 14,30L 15,30L 14.9999,7.99983L 13.9999,7.99983L 14,30 Z "/>
	<path fill="#BFF4FF" fill-opacity="1" stroke-width="0.2" stroke-linejoin="miter" d="M 5.99999,30L 6.99999,30L 6.99997,14L 5.99997,14L 5.99999,30 Z "/>
	<path fill="#80E9FF" fill-opacity="1" stroke-width="0.2" stroke-linejoin="miter" d="M 13,30L 14,30L 14,14L 13,14L 13,30 Z "/>
	<path fill="#BFF4FF" fill-opacity="1" stroke-width="0.2" stroke-linejoin="miter" d="M 4.99999,30L 5.99999,30L 5.99997,18.9999L 4.99997,18.9999L 4.99999,30 Z "/>
	<path fill="#80E9FF" fill-opacity="1" stroke-width="0.2" stroke-linejoin="miter" d="M 12,30L 13,30L 13,18.9999L 12,18.9999L 12,30 Z "/>
	<path fill="#BFF4FF" fill-opacity="1" stroke-width="0.2" stroke-linejoin="miter" d="M 3.99999,30L 4.99999,30L 4.99997,22.9999L 3.99997,22.9999L 3.99999,30 Z "/>
	<path fill="#80E9FF" fill-opacity="1" stroke-width="0.2" stroke-linejoin="miter" d="M 11,30L 12,30L 12,22.9999L 11,22.9999L 11,30 Z "/>
	<path fill="#BFF4FF" fill-opacity="1" stroke-width="0.2" stroke-linejoin="miter" d="M 2.99999,30L 3.99999,30L 3.99998,25.9999L 2.99998,25.9999L 2.99999,30 Z "/>
	<path fill="#80E9FF" fill-opacity="1" stroke-width="0.2" stroke-linejoin="miter" d="M 10,30L 11,30L 11,25.9999L 10,25.9999L 10,30 Z "/>
	<path fill="#BFF4FF" fill-opacity="1" stroke-width="0.2" stroke-linejoin="miter" d="M 1.99999,30L 3.00099,30L 3.0009,27.9998L 1.99994,27.9999L 1.99999,30 Z "/>
	<path fill="#80E9FF" fill-opacity="1" stroke-width="0.2" stroke-linejoin="miter" d="M 9.00003,30L 10.001,30L 10.0009,27.9998L 8.99999,27.9999L 9.00003,30 Z "/>
	<rect x="8" y="2" fill="#BFF4FF" fill-opacity="1" stroke-width="0.2" stroke-linejoin="miter" width="1" height="28"/>
	<rect x="15" y="2" fill="#80E9FF" fill-opacity="1" stroke-width="0.2" stroke-linejoin="miter" width="1" height="28"/>
	<path fill="#40DEFF" fill-opacity="1" stroke-width="0.2" stroke-linejoin="miter" d="M 21.0001,30L 22.0001,30L 22,7.99983L 21,7.99983L 21.0001,30 Z "/>
	<path fill="#40DEFF" fill-opacity="1" stroke-width="0.2" stroke-linejoin="miter" d="M 20.0001,30L 21.0001,30L 21.0001,14L 20.0001,14L 20.0001,30 Z "/>
	<path fill="#40DEFF" fill-opacity="1" stroke-width="0.2" stroke-linejoin="miter" d="M 19.0001,30L 20.0001,30L 20.0001,18.9999L 19.0001,18.9999L 19.0001,30 Z "/>
	<path fill="#40DEFF" fill-opacity="1" stroke-width="0.2" stroke-linejoin="miter" d="M 18.0001,30L 19.0001,30L 19.0001,22.9999L 18.0001,22.9999L 18.0001,30 Z "/>
	<path fill="#40DEFF" fill-opacity="1" stroke-width="0.2" stroke-linejoin="miter" d="M 17.0001,30L 18.0001,30L 18.0001,25.9999L 17.0001,25.9999L 17.0001,30 Z "/>
	<path fill="#40DEFF" fill-opacity="1" stroke-width="0.2" stroke-linejoin="miter" d="M 16.0001,30L 17.0011,30L 17.001,27.9998L 16,27.9999L 16.0001,30 Z "/>
	<rect x="22.0001" y="2" fill="#40DEFF" fill-opacity="1" stroke-width="0.2" stroke-linejoin="miter" width="1" height="28"/>
	<path fill="#00D3FF" fill-opacity="1" stroke-width="0.2" stroke-linejoin="miter" d="M 28.0001,30L 29.0001,30L 29,7.99983L 28,7.99983L 28.0001,30 Z "/>
	<path fill="#00D3FF" fill-opacity="1" stroke-width="0.2" stroke-linejoin="miter" d="M 27.0001,30L 28.0001,30L 28.0001,14L 27.0001,14L 27.0001,30 Z "/>
	<path fill="#00D3FF" fill-opacity="1" stroke-width="0.2" stroke-linejoin="miter" d="M 26.0001,30L 27.0001,30L 27.0001,18.9999L 26.0001,18.9999L 26.0001,30 Z "/>
	<path fill="#00D3FF" fill-opacity="1" stroke-width="0.2" stroke-linejoin="miter" d="M 25.0001,30L 26.0001,30L 26.0001,22.9999L 25.0001,22.9999L 25.0001,30 Z "/>
	<path fill="#00D3FF" fill-opacity="1" stroke-width="0.2" stroke-linejoin="miter" d="M 24.0001,30L 25.0001,30L 25.0001,25.9999L 24.0001,25.9999L 24.0001,30 Z "/>
	<path fill="#00D3FF" fill-opacity="1" stroke-width="0.2" stroke-linejoin="miter" d="M 23.0001,30L 24.0011,30L 24.001,27.9998L 23.0001,27.9999L 23.0001,30 Z "/>
	<rect x="29.0001" y="2" fill="#00D3FF" fill-opacity="1" stroke-width="0.2" stroke-linejoin="miter" width="1" height="28"/>
</svg>
